<?xml version="1.0" standalone="no"?>
<!DOCTYPE svg PUBLIC "-//W3C//DTD SVG 20010904//EN"
 "http://www.w3.org/TR/2001/REC-SVG-20010904/DTD/svg10.dtd">
<svg version="1.0" xmlns="http://www.w3.org/2000/svg"
 viewBox="0 0 2600.000000 2600.000000"
 preserveAspectRatio="xMidYMid meet">
<metadata>
Created by potrace 1.15, written by Peter Selinger 2001-2017
</metadata>
<g transform="translate(0.000000,2600.000000) scale(0.100000,-0.100000)"
fill="#000000" stroke="none">
<path d="M13513 20032 c-5033 -1181 -9155 -2150 -9158 -2154 -9 -9 181 -381
279 -545 848 -1421 2418 -2715 4376 -3606 1287 -586 2751 -996 4245 -1191 502
-66 1097 -119 1114 -100 4 5 1776 2077 3937 4604 2160 2527 4033 4718 4161
4868 146 170 227 272 216 271 -10 0 -4136 -967 -9170 -2147z m3497 -1066 c395
-69 709 -213 915 -421 106 -107 165 -204 195 -319 121 -475 -366 -912 -1150
-1033 -161 -25 -537 -24 -705 0 -407 61 -742 211 -955 426 -164 166 -229 332
-209 531 25 244 227 476 554 636 198 97 389 153 640 189 138 19 582 14 715 -9z
m-7275 -1470 c305 -49 568 -144 775 -281 94 -63 244 -212 289 -287 67 -115 84
-172 89 -298 4 -105 2 -122 -23 -195 -36 -108 -84 -184 -178 -282 -222 -231
-609 -396 -1039 -442 -125 -14 -421 -14 -546 0 -325 35 -641 141 -867 291
-110 72 -249 215 -302 309 -132 232 -103 489 81 709 200 241 600 426 1036 479
47 6 101 13 120 15 79 9 469 -3 565 -18z m4780 -1670 c384 -66 677 -240 791
-471 92 -187 39 -400 -142 -563 -162 -146 -420 -254 -704 -293 -181 -25 -458
-14 -642 26 -502 110 -817 429 -733 744 76 288 434 511 915 570 104 13 407 5
515 -13z"/>
<path d="M21270 19638 c-1059 -1238 -2954 -3456 -4212 -4927 l-2288 -2676 0
-3760 0 -3760 29 35 c16 19 1912 2238 4215 4930 l4186 4895 0 3758 c0 2066 -1
3757 -2 3757 -2 0 -869 -1014 -1928 -2252z m344 -4032 c129 -75 243 -283 296
-539 30 -145 40 -249 40 -417 0 -167 -10 -272 -40 -416 -53 -258 -169 -467
-296 -536 -70 -38 -112 -43 -181 -23 -82 24 -181 125 -240 245 -164 334 -196
848 -78 1261 102 358 311 535 499 425z m-3820 -1961 c188 -40 364 -173 501
-380 451 -682 388 -1878 -127 -2421 -380 -399 -877 -273 -1173 298 -99 192
-166 411 -201 663 -23 164 -23 486 0 655 86 633 394 1101 777 1185 84 18 139
18 223 0z"/>
<path d="M4240 13306 l0 -3557 51 -127 c55 -134 197 -426 275 -564 855 -1509
2537 -2891 4627 -3802 1492 -650 3198 -1067 4920 -1202 l87 -6 0 3911 c0 2151
-3 3911 -7 3911 -5 0 -127 11 -271 25 -3095 293 -6118 1472 -8082 3153 -611
523 -1100 1067 -1493 1661 -49 75 -93 140 -98 146 -5 5 -9 -1508 -9 -3549z
m2788 -1965 c132 -45 273 -155 368 -287 68 -95 141 -259 174 -388 158 -626
-118 -1292 -585 -1411 -130 -33 -298 -7 -422 66 -84 49 -228 198 -285 294 -65
109 -114 233 -146 368 -24 101 -26 131 -27 317 0 180 3 218 23 310 72 319 250
584 466 691 48 23 114 48 149 55 81 17 209 10 285 -15z m4575 -318 c132 -47
236 -113 347 -223 257 -254 391 -607 391 -1030 0 -415 -133 -771 -381 -1021
-182 -183 -375 -269 -606 -269 -222 0 -428 92 -605 271 -240 242 -378 612
-379 1014 0 163 14 279 50 421 114 441 415 781 765 860 39 9 107 12 195 11
121 -3 144 -6 223 -34z"/>
</g>
</svg>
